<svg id="visual" viewBox="0 0 900 200" width="900" height="200" xmlns="http://www.w3.org/2000/svg" xmlns:xlink="http://www.w3.org/1999/xlink" version="1.1">
  <rect x="0" y="0" width="900" height="200" fill="#faf1ca"></rect>
  <path d="M0 129L21.5 130.5C43 132 86 134 128.8 134C171.7 134 214.3 131 257.2 133C300 135 343 141 385.8 143C428.7 144 471.3 140 514.2 140C557 140 600 144 642.8 142C685.7 140 728.3 134 771.2 133C814 132 857 135 878.5 137L900 139L900 201L878.5 201C857 201 814 201 771.2 201C728.3 201 685.7 201 642.8 201C600 201 557 201 514.2 201C471.3 201 428.7 201 385.8 201C343 201 300 201 257.2 201C214.3 201 171.7 201 128.8 201C86 201 43 201 21.5 201L0 201Z" fill="#4e535b"></path>
  <path d="M0 156L21.5 154C43 152 86 148 128.8 145C171.7 142 214.3 140 257.2 138C300 136 343 134 385.8 133C428.7 132 471.3 132 514.2 134C557 136 600 139 642.8 139C685.7 139 728.3 137 771.2 137C814 137 857 140 878.5 141L900 142L900 201L878.5 201C857 201 814 201 771.2 201C728.3 201 685.7 201 642.8 201C600 201 557 201 514.2 201C471.3 201 428.7 201 385.8 201C343 201 300 201 257.2 201C214.3 201 171.7 201 128.8 201C86 201 43 201 21.5 201L0 201Z" fill="#3f4249"></path>
  <path d="M0 166L21.5 165C43 165 86 164 128.8 160C171.7 157 214.3 151 257.2 151C300 151 343 157 385.8 160C428.7 164 471.3 165 514.2 165C557 164 600 163 642.8 163C685.7 164 728.3 167 771.2 166C814 165 857 161 878.5 159L900 157L900 201L878.5 201C857 201 814 201 771.2 201C728.3 201 685.7 201 642.8 201C600 201 557 201 514.2 201C471.3 201 428.7 201 385.8 201C343 201 300 201 257.2 201C214.3 201 171.7 201 128.8 201C86 201 43 201 21.5 201L0 201Z" fill="#303238"></path>
  <path d="M0 162L21.5 162C43 163 86 164 128.8 165C171.7 166 214.3 167 257.2 166C300 166 343 163 385.8 162C428.7 161 471.3 162 514.2 162C557 162 600 161 642.8 164C685.7 167 728.3 173 771.2 173C814 173 857 167 878.5 164L900 161L900 201L878.5 201C857 201 814 201 771.2 201C728.3 201 685.7 201 642.8 201C600 201 557 201 514.2 201C471.3 201 428.7 201 385.8 201C343 201 300 201 257.2 201C214.3 201 171.7 201 128.8 201C86 201 43 201 21.5 201L0 201Z" fill="#222328"></path>
  <path d="M0 182L21.5 183C43 184 86 186 128.8 187C171.7 187 214.3 186 257.2 184C300 182 343 180 385.8 179C428.7 179 471.3 181 514.2 182C557 183 600 183 642.8 183C685.7 183 728.3 183 771.2 184C814 184 857 186 878.5 187L900 188L900 201L878.5 201C857 201 814 201 771.2 201C728.3 201 685.7 201 642.8 201C600 201 557 201 514.2 201C471.3 201 428.7 201 385.8 201C343 201 300 201 257.2 201C214.3 201 171.7 201 128.8 201C86 201 43 201 21.5 201L0 201Z" fill="#141419"></path>
</svg>