<svg id="visual" viewBox="0 0 900 300" width="900" height="300" xmlns="http://www.w3.org/2000/svg" xmlns:xlink="http://www.w3.org/1999/xlink" version="1.1"><rect x="0" y="0" width="900" height="300" fill="#001220"></rect><path d="M0 71L30 74.2C60 77.3 120 83.7 180 86C240 88.3 300 86.7 360 84.8C420 83 480 81 540 78.3C600 75.7 660 72.3 720 73.2C780 74 840 79 870 81.5L900 84L900 0L870 0C840 0 780 0 720 0C660 0 600 0 540 0C480 0 420 0 360 0C300 0 240 0 180 0C120 0 60 0 30 0L0 0Z" fill="#f8f0cf"></path><path d="M0 48L30 48.7C60 49.3 120 50.7 180 53C240 55.3 300 58.7 360 62C420 65.3 480 68.7 540 66.7C600 64.7 660 57.3 720 56.2C780 55 840 60 870 62.5L900 65L900 0L870 0C840 0 780 0 720 0C660 0 600 0 540 0C480 0 420 0 360 0C300 0 240 0 180 0C120 0 60 0 30 0L0 0Z" fill="#ddccad"></path><path d="M0 32L30 34.7C60 37.3 120 42.7 180 46.3C240 50 300 52 360 50C420 48 480 42 540 41C600 40 660 44 720 43.2C780 42.3 840 36.7 870 33.8L900 31L900 0L870 0C840 0 780 0 720 0C660 0 600 0 540 0C480 0 420 0 360 0C300 0 240 0 180 0C120 0 60 0 30 0L0 0Z" fill="#c3a98e"></path><path d="M0 18L30 16.8C60 15.7 120 13.3 180 15.2C240 17 300 23 360 25.7C420 28.3 480 27.7 540 27.3C600 27 660 27 720 26C780 25 840 23 870 22L900 21L900 0L870 0C840 0 780 0 720 0C660 0 600 0 540 0C480 0 420 0 360 0C300 0 240 0 180 0C120 0 60 0 30 0L0 0Z" fill="#a88771"></path></svg>