<svg id="visual" viewBox="0 0 900 200" width="900" height="200" xmlns="http://www.w3.org/2000/svg" xmlns:xlink="http://www.w3.org/1999/xlink" version="1.1"><rect x="0" y="0" width="900" height="200" fill="#faf1ca"></rect><path d="M0 107L12.5 111.7C25 116.3 50 125.7 75 123.8C100 122 125 109 150 105.8C175 102.7 200 109.3 225 118.3C250 127.3 275 138.7 300 141.2C325 143.7 350 137.3 375 132.7C400 128 425 125 450 122.2C475 119.3 500 116.7 525 118C550 119.3 575 124.7 600 126C625 127.3 650 124.7 675 124.2C700 123.7 725 125.3 750 123.5C775 121.7 800 116.3 825 111.3C850 106.3 875 101.7 887.5 99.3L900 97L900 0L887.5 0C875 0 850 0 825 0C800 0 775 0 750 0C725 0 700 0 675 0C650 0 625 0 600 0C575 0 550 0 525 0C500 0 475 0 450 0C425 0 400 0 375 0C350 0 325 0 300 0C275 0 250 0 225 0C200 0 175 0 150 0C125 0 100 0 75 0C50 0 25 0 12.5 0L0 0Z" fill="#faf1ca"></path><path d="M0 91L12.5 92C25 93 50 95 75 99.8C100 104.7 125 112.3 150 112.8C175 113.3 200 106.7 225 100.7C250 94.7 275 89.3 300 88.7C325 88 350 92 375 91.8C400 91.7 425 87.3 450 90.2C475 93 500 103 525 107.7C550 112.3 575 111.7 600 110.5C625 109.3 650 107.7 675 108.2C700 108.7 725 111.3 750 109.7C775 108 800 102 825 100.3C850 98.7 875 101.3 887.5 102.7L900 104L900 0L887.5 0C875 0 850 0 825 0C800 0 775 0 750 0C725 0 700 0 675 0C650 0 625 0 600 0C575 0 550 0 525 0C500 0 475 0 450 0C425 0 400 0 375 0C350 0 325 0 300 0C275 0 250 0 225 0C200 0 175 0 150 0C125 0 100 0 75 0C50 0 25 0 12.5 0L0 0Z" fill="#e1cca8"></path><path d="M0 49L12.5 52.2C25 55.3 50 61.7 75 64.8C100 68 125 68 150 71.3C175 74.7 200 81.3 225 80.2C250 79 275 70 300 66.7C325 63.3 350 65.7 375 68.7C400 71.7 425 75.3 450 78C475 80.7 500 82.3 525 79.8C550 77.3 575 70.7 600 66.7C625 62.7 650 61.3 675 65.2C700 69 725 78 750 79C775 80 800 73 825 70.2C850 67.3 875 68.7 887.5 69.3L900 70L900 0L887.5 0C875 0 850 0 825 0C800 0 775 0 750 0C725 0 700 0 675 0C650 0 625 0 600 0C575 0 550 0 525 0C500 0 475 0 450 0C425 0 400 0 375 0C350 0 325 0 300 0C275 0 250 0 225 0C200 0 175 0 150 0C125 0 100 0 75 0C50 0 25 0 12.5 0L0 0Z" fill="#c8a889"></path><path d="M0 36L12.5 34.5C25 33 50 30 75 30.8C100 31.7 125 36.3 150 38.8C175 41.3 200 41.7 225 40.2C250 38.7 275 35.3 300 36.5C325 37.7 350 43.3 375 44.8C400 46.3 425 43.7 450 39.8C475 36 500 31 525 32.5C550 34 575 42 600 42.3C625 42.7 650 35.3 675 32.7C700 30 725 32 750 35.3C775 38.7 800 43.3 825 45.8C850 48.3 875 48.7 887.5 48.8L900 49L900 0L887.5 0C875 0 850 0 825 0C800 0 775 0 750 0C725 0 700 0 675 0C650 0 625 0 600 0C575 0 550 0 525 0C500 0 475 0 450 0C425 0 400 0 375 0C350 0 325 0 300 0C275 0 250 0 225 0C200 0 175 0 150 0C125 0 100 0 75 0C50 0 25 0 12.5 0L0 0Z" fill="#ae856e"></path></svg>